<mxfile host="app.diagrams.net" modified="2022-03-09T05:03:54.554Z" agent="5.0 (Windows NT 10.0; Win64; x64) AppleWebKit/537.36 (KHTML, like Gecko) Chrome/98.0.4758.102 Safari/537.36" etag="zCny8Y716KxVCx3DNKn2" version="15.8.3" type="github">
  <diagram name="Page-1" id="13e1069c-82ec-6db2-03f1-153e76fe0fe0">
    <mxGraphModel dx="1024" dy="475" grid="1" gridSize="10" guides="1" tooltips="1" connect="1" arrows="1" fold="1" page="1" pageScale="1" pageWidth="1100" pageHeight="850" background="none" math="0" shadow="0">
      <root>
        <mxCell id="0" />
        <mxCell id="1" parent="0" />
        <mxCell id="7baba1c4bc27f4b0-2" value="专业负责人" style="shape=umlLifeline;perimeter=lifelinePerimeter;whiteSpace=wrap;html=1;container=1;collapsible=0;recursiveResize=0;outlineConnect=0;rounded=1;shadow=0;comic=0;labelBackgroundColor=none;strokeWidth=1;fontFamily=Verdana;fontSize=12;align=center;" parent="1" vertex="1">
          <mxGeometry x="240" y="80" width="100" height="640" as="geometry" />
        </mxCell>
        <mxCell id="7baba1c4bc27f4b0-3" value="编制人" style="shape=umlLifeline;perimeter=lifelinePerimeter;whiteSpace=wrap;html=1;container=1;collapsible=0;recursiveResize=0;outlineConnect=0;rounded=1;shadow=0;comic=0;labelBackgroundColor=none;strokeWidth=1;fontFamily=Verdana;fontSize=12;align=center;" parent="1" vertex="1">
          <mxGeometry x="400" y="80" width="100" height="640" as="geometry" />
        </mxCell>
        <mxCell id="7baba1c4bc27f4b0-6" value="团队文件库" style="shape=umlLifeline;perimeter=lifelinePerimeter;whiteSpace=wrap;html=1;container=1;collapsible=0;recursiveResize=0;outlineConnect=0;rounded=1;shadow=0;comic=0;labelBackgroundColor=none;strokeWidth=1;fontFamily=Verdana;fontSize=12;align=center;" parent="1" vertex="1">
          <mxGeometry x="820" y="80" width="100" height="670" as="geometry" />
        </mxCell>
        <mxCell id="_GtbJUJA54lBvp14Mg9Z-6" value="" style="html=1;points=[];perimeter=orthogonalPerimeter;" vertex="1" parent="7baba1c4bc27f4b0-6">
          <mxGeometry x="45" y="80" width="10" height="40" as="geometry" />
        </mxCell>
        <mxCell id="_GtbJUJA54lBvp14Mg9Z-11" value="" style="html=1;points=[];perimeter=orthogonalPerimeter;" vertex="1" parent="7baba1c4bc27f4b0-6">
          <mxGeometry x="45" y="150" width="10" height="40" as="geometry" />
        </mxCell>
        <mxCell id="_GtbJUJA54lBvp14Mg9Z-17" value="" style="html=1;points=[];perimeter=orthogonalPerimeter;" vertex="1" parent="7baba1c4bc27f4b0-6">
          <mxGeometry x="45" y="217" width="10" height="40" as="geometry" />
        </mxCell>
        <mxCell id="_GtbJUJA54lBvp14Mg9Z-30" value="" style="html=1;points=[];perimeter=orthogonalPerimeter;" vertex="1" parent="7baba1c4bc27f4b0-6">
          <mxGeometry x="45" y="297" width="10" height="50" as="geometry" />
        </mxCell>
        <mxCell id="_GtbJUJA54lBvp14Mg9Z-47" value="" style="html=1;points=[];perimeter=orthogonalPerimeter;" vertex="1" parent="7baba1c4bc27f4b0-6">
          <mxGeometry x="45" y="410" width="10" height="70" as="geometry" />
        </mxCell>
        <mxCell id="7baba1c4bc27f4b0-8" value="项目负责人" style="shape=umlLifeline;perimeter=lifelinePerimeter;whiteSpace=wrap;html=1;container=1;collapsible=0;recursiveResize=0;outlineConnect=0;rounded=1;shadow=0;comic=0;labelBackgroundColor=none;strokeWidth=1;fontFamily=Verdana;fontSize=12;align=center;" parent="1" vertex="1">
          <mxGeometry x="100" y="80" width="100" height="640" as="geometry" />
        </mxCell>
        <mxCell id="_GtbJUJA54lBvp14Mg9Z-37" value="" style="html=1;verticalAlign=bottom;startArrow=oval;startFill=1;endArrow=block;startSize=8;rounded=0;entryX=1.08;entryY=0.05;entryDx=0;entryDy=0;entryPerimeter=0;" edge="1" parent="7baba1c4bc27f4b0-8" target="_GtbJUJA54lBvp14Mg9Z-11">
          <mxGeometry width="60" relative="1" as="geometry">
            <mxPoint x="50" y="150" as="sourcePoint" />
            <mxPoint x="110" y="150" as="targetPoint" />
          </mxGeometry>
        </mxCell>
        <mxCell id="_GtbJUJA54lBvp14Mg9Z-46" value="整体合稿" style="html=1;verticalAlign=bottom;startArrow=oval;startFill=1;endArrow=block;startSize=8;rounded=0;" edge="1" parent="7baba1c4bc27f4b0-8" target="7baba1c4bc27f4b0-6">
          <mxGeometry width="60" relative="1" as="geometry">
            <mxPoint x="50" y="540" as="sourcePoint" />
            <mxPoint x="110" y="540" as="targetPoint" />
          </mxGeometry>
        </mxCell>
        <mxCell id="_GtbJUJA54lBvp14Mg9Z-2" value="提交基准文件到团队文件库" style="text;html=1;align=center;verticalAlign=middle;resizable=0;points=[];autosize=1;strokeColor=none;fillColor=none;" vertex="1" parent="1">
          <mxGeometry x="470" y="140" width="160" height="20" as="geometry" />
        </mxCell>
        <mxCell id="_GtbJUJA54lBvp14Mg9Z-10" value="整体分发" style="text;html=1;align=center;verticalAlign=middle;resizable=0;points=[];autosize=1;strokeColor=none;fillColor=none;" vertex="1" parent="1">
          <mxGeometry x="480" y="210" width="60" height="20" as="geometry" />
        </mxCell>
        <mxCell id="_GtbJUJA54lBvp14Mg9Z-13" value="" style="html=1;verticalAlign=bottom;endArrow=block;rounded=0;" edge="1" parent="1">
          <mxGeometry width="80" relative="1" as="geometry">
            <mxPoint x="449.5" y="497" as="sourcePoint" />
            <mxPoint x="869.5" y="497" as="targetPoint" />
            <Array as="points">
              <mxPoint x="510" y="497" />
              <mxPoint x="640" y="497" />
            </Array>
          </mxGeometry>
        </mxCell>
        <mxCell id="_GtbJUJA54lBvp14Mg9Z-16" value="拉取数据" style="text;html=1;align=center;verticalAlign=middle;resizable=0;points=[];autosize=1;strokeColor=none;fillColor=none;" vertex="1" parent="1">
          <mxGeometry x="590" y="477" width="60" height="20" as="geometry" />
        </mxCell>
        <mxCell id="_GtbJUJA54lBvp14Mg9Z-23" value="&lt;span style=&quot;font-size: 12px ; background-color: rgb(248 , 249 , 250)&quot;&gt;判断是否有项目经理分发的最新文件，若存在该文件为主文件，若不存在，则获取自己上传的最新文件，再不存在获取专业编制人&lt;/span&gt;" style="html=1;verticalAlign=bottom;endArrow=open;dashed=1;endSize=8;rounded=0;" edge="1" parent="1">
          <mxGeometry x="-0.0443" y="-10" relative="1" as="geometry">
            <mxPoint x="869.5" y="557" as="sourcePoint" />
            <mxPoint x="449.5" y="557" as="targetPoint" />
            <Array as="points">
              <mxPoint x="750" y="557" />
              <mxPoint x="630" y="557" />
            </Array>
            <mxPoint as="offset" />
          </mxGeometry>
        </mxCell>
        <mxCell id="_GtbJUJA54lBvp14Mg9Z-25" value="设置接收人，及接收人节点" style="text;html=1;align=center;verticalAlign=middle;resizable=0;points=[];autosize=1;strokeColor=none;fillColor=none;" vertex="1" parent="1">
          <mxGeometry x="880" y="240" width="160" height="20" as="geometry" />
        </mxCell>
        <mxCell id="_GtbJUJA54lBvp14Mg9Z-26" value="走专业合稿的逻辑：存在项目经理的文件，设为主文件，是将所有相关联的编制人的最新文件及自己的最新文件返回" style="html=1;verticalAlign=bottom;endArrow=open;dashed=1;endSize=8;rounded=0;" edge="1" parent="1" source="_GtbJUJA54lBvp14Mg9Z-17">
          <mxGeometry relative="1" as="geometry">
            <mxPoint x="660" y="347" as="sourcePoint" />
            <mxPoint x="289.5" y="337" as="targetPoint" />
            <Array as="points">
              <mxPoint x="660" y="337" />
            </Array>
          </mxGeometry>
        </mxCell>
        <mxCell id="_GtbJUJA54lBvp14Mg9Z-29" value="设置关联的编制人接收" style="html=1;verticalAlign=bottom;endArrow=open;dashed=1;endSize=8;rounded=0;" edge="1" parent="1">
          <mxGeometry relative="1" as="geometry">
            <mxPoint x="869.5" y="427" as="sourcePoint" />
            <mxPoint x="449.5" y="427" as="targetPoint" />
            <Array as="points">
              <mxPoint x="630" y="427" />
            </Array>
          </mxGeometry>
        </mxCell>
        <mxCell id="_GtbJUJA54lBvp14Mg9Z-33" value="return" style="html=1;verticalAlign=bottom;endArrow=open;dashed=1;endSize=8;rounded=0;exitX=0.12;exitY=1.02;exitDx=0;exitDy=0;exitPerimeter=0;" edge="1" parent="1" source="_GtbJUJA54lBvp14Mg9Z-6" target="7baba1c4bc27f4b0-8">
          <mxGeometry relative="1" as="geometry">
            <mxPoint x="650" y="280" as="sourcePoint" />
            <mxPoint x="570" y="280" as="targetPoint" />
          </mxGeometry>
        </mxCell>
        <mxCell id="_GtbJUJA54lBvp14Mg9Z-36" value="" style="html=1;verticalAlign=bottom;startArrow=oval;startFill=1;endArrow=block;startSize=8;rounded=0;" edge="1" parent="1" source="7baba1c4bc27f4b0-8" target="7baba1c4bc27f4b0-6">
          <mxGeometry width="60" relative="1" as="geometry">
            <mxPoint x="580" y="380" as="sourcePoint" />
            <mxPoint x="640" y="380" as="targetPoint" />
            <Array as="points">
              <mxPoint x="780" y="160" />
            </Array>
          </mxGeometry>
        </mxCell>
        <mxCell id="_GtbJUJA54lBvp14Mg9Z-40" value="" style="html=1;verticalAlign=bottom;startArrow=oval;startFill=1;endArrow=block;startSize=8;rounded=0;" edge="1" parent="1" source="7baba1c4bc27f4b0-2">
          <mxGeometry width="60" relative="1" as="geometry">
            <mxPoint x="300" y="297" as="sourcePoint" />
            <mxPoint x="869.5" y="297" as="targetPoint" />
          </mxGeometry>
        </mxCell>
        <mxCell id="_GtbJUJA54lBvp14Mg9Z-42" value="拉取数据" style="text;html=1;align=center;verticalAlign=middle;resizable=0;points=[];autosize=1;strokeColor=none;fillColor=none;" vertex="1" parent="1">
          <mxGeometry x="560" y="277" width="60" height="20" as="geometry" />
        </mxCell>
        <mxCell id="_GtbJUJA54lBvp14Mg9Z-44" value="专业分发" style="html=1;verticalAlign=bottom;startArrow=oval;startFill=1;endArrow=block;startSize=8;rounded=0;entryX=-0.04;entryY=0.08;entryDx=0;entryDy=0;entryPerimeter=0;" edge="1" parent="1" target="_GtbJUJA54lBvp14Mg9Z-30">
          <mxGeometry width="60" relative="1" as="geometry">
            <mxPoint x="289.5" y="381" as="sourcePoint" />
            <mxPoint x="640" y="397" as="targetPoint" />
          </mxGeometry>
        </mxCell>
        <mxCell id="_GtbJUJA54lBvp14Mg9Z-45" value="return" style="html=1;verticalAlign=bottom;endArrow=open;dashed=1;endSize=8;rounded=0;exitX=1.56;exitY=0.99;exitDx=0;exitDy=0;exitPerimeter=0;" edge="1" parent="1" source="_GtbJUJA54lBvp14Mg9Z-11" target="7baba1c4bc27f4b0-8">
          <mxGeometry relative="1" as="geometry">
            <mxPoint x="650" y="380" as="sourcePoint" />
            <mxPoint x="570" y="380" as="targetPoint" />
            <Array as="points">
              <mxPoint x="630" y="270" />
            </Array>
          </mxGeometry>
        </mxCell>
        <mxCell id="_GtbJUJA54lBvp14Mg9Z-49" value="" style="edgeStyle=orthogonalEdgeStyle;rounded=0;orthogonalLoop=1;jettySize=auto;html=1;" edge="1" parent="1" source="_GtbJUJA54lBvp14Mg9Z-48" target="_GtbJUJA54lBvp14Mg9Z-47">
          <mxGeometry relative="1" as="geometry" />
        </mxCell>
        <mxCell id="_GtbJUJA54lBvp14Mg9Z-48" value="" style="html=1;points=[];perimeter=orthogonalPerimeter;" vertex="1" parent="1">
          <mxGeometry x="865" y="620" width="10" height="40" as="geometry" />
        </mxCell>
        <mxCell id="_GtbJUJA54lBvp14Mg9Z-50" value="返回" style="html=1;verticalAlign=bottom;endArrow=open;dashed=1;endSize=8;rounded=0;exitX=0.52;exitY=1.06;exitDx=0;exitDy=0;exitPerimeter=0;" edge="1" parent="1" source="_GtbJUJA54lBvp14Mg9Z-48" target="7baba1c4bc27f4b0-8">
          <mxGeometry relative="1" as="geometry">
            <mxPoint x="650" y="580" as="sourcePoint" />
            <mxPoint x="570" y="580" as="targetPoint" />
          </mxGeometry>
        </mxCell>
      </root>
    </mxGraphModel>
  </diagram>
</mxfile>
